<?xml version="1.0" encoding="utf-8"?>
<!-- Generator: Adobe Illustrator 19.1.0, SVG Export Plug-In . SVG Version: 6.00 Build 0)  -->
<svg version="1.1" id="Capa_1" xmlns="http://www.w3.org/2000/svg" xmlns:xlink="http://www.w3.org/1999/xlink" x="0px" y="0px"
	 viewBox="0 0 295.3 185" style="enable-background:new 0 0 295.3 185;" xml:space="preserve">
<style type="text/css">
	.st0{fill:#2481D7;}
	.st1{fill:#90C0EB;}
	.st2{fill:#FFFFFF;}
	.st3{fill:#EDF5FC;}
	.st4{fill:#005CB9;}
</style>
<g>
	<g>
		<path class="st0" d="M207.4,106c-6,0-11.1-5-13.3-9h-6.9c-2.1,4-7.2,8.7-13.3,8.7c-7.9,0-14.4-6.6-14.4-14.7
			c0-8,6.5-14.6,14.4-14.6c6.1,0,11.1,4.6,13.3,8.6h6.9c2.2-4,7.3-8.9,13.3-8.9c6,0,11.1,4.9,13.3,8.9h5.4c2.2-4,7.2-8.6,13.3-8.6
			c7.9,0,14.4,6.6,14.4,14.7s-6.5,14.6-14.4,14.6c-6.1,0-11.1-4.7-13.3-8.7h-5.4C218.5,101,213.4,106,207.4,106z M185.4,94h10.8
			l0.4,1c1.5,3.9,5.9,8,11,8c5.1,0,9.4-4.2,11-8.1l0.4-1h9.3l0.4,1c1.5,3.8,5.8,7.8,11,7.8c6.3,0,11.5-5.2,11.5-11.7
			c0-6.4-5.2-11.7-11.5-11.7c-5.1,0-9.5,3.9-11,7.8L228,88h-9.3l-0.4-0.8c-1.5-3.9-5.9-8-11-8c-5.1,0-9.5,4-11,7.9l-0.4,0.8h-10.8
			l-0.4-0.8c-1.5-3.8-5.8-7.8-11-7.8c-6.3,0-11.5,5.2-11.5,11.6c0,6.4,5.3,11.8,11.5,11.8c5.2,0,9.5-4,11-7.8L185.4,94z"/>
	</g>
	<g>
		<path class="st0" d="M161,94h-9.5c-5.2,0-10.5-5.6-10.5-10.9V44.4c0-8.1-6.5-14.6-14.5-14.6S112,36.3,112,44.4V53h-3v-8.6
			c0-9.7,7.9-17.5,17.5-17.5S144,34.7,144,44.4v38.7c0,3.7,3.9,7.9,7.5,7.9h9.5V94z"/>
	</g>
	<g>
		<path class="st0" d="M117.9,63.1h-16.2c-3.1,0-5.7-2.5-5.7-5.7s2.5-5.7,5.7-5.7h16.2c3.1,0,5.7,2.5,5.7,5.7S121.1,63.1,117.9,63.1
			z M101.7,54.7c-1.5,0-2.8,1.2-2.8,2.8c0,1.5,1.2,2.8,2.8,2.8h16.2c1.5,0,2.8-1.2,2.8-2.8c0-1.5-1.2-2.8-2.8-2.8H101.7z"/>
	</g>
	<g>
		<path class="st0" d="M109.8,133.3C96.1,133.3,85,122.4,85,109c0-9.1,3.9-14,7.8-18.6c3.6-4.4,6.9-8.5,6.9-16.1l0-14l19.3,0.6V74
			c0,7.6,3.5,11.8,7.1,16.1c3.9,4.7,8,9.6,8,18.7C134.1,122.5,123.4,133.3,109.8,133.3z M103,74.2c0,8.7-4.1,13.4-7.8,17.9
			c-3.7,4.5-7.2,8.7-7.2,16.8c0,11.8,9.7,21.4,21.7,21.4c12.1,0,21.5-9.5,21.5-21.5c0-8.1-3.6-12.3-7.4-16.8
			c-3.8-4.6-7.8-9.3-7.8-18V63.6l-13-0.4V74.2z"/>
	</g>
	<g>
		<path class="st1" d="M91.4,104c-0.4,1-0.7,3.3-0.7,5c0,10.4,8.4,18.9,18.9,18.9s18.9-8.5,18.9-19c0-1.7-0.2-4-0.7-5H91.4z"/>
	</g>
	<g>
		<path class="st0" d="M32.5,116h-2.9c0-14,9.5-14,9.6-14H87v3H39.2C38.6,105,32.5,105,32.5,116z"/>
	</g>
	<g>
		<polygon class="st2" points="152.6,180.7 138,116.8 81.2,116.8 66.7,180.7 73.5,180.7 85.7,127 133.5,127 145.7,180.7 		"/>
		<path class="st0" d="M154.4,182.1h-9.8l-12.2-53.7H86.9l-12.2,53.7h-9.8l15.2-66.8h59.1L154.4,182.1z M146.9,179.2h3.9l-13.9-61
			H82.4l-13.9,61h3.9l12.2-53.7h50.1L146.9,179.2z"/>
	</g>
	<g>
		<rect x="87.5" y="165.9" class="st2" width="40.9" height="14.8"/>
		<path class="st0" d="M129.8,182.1H86v-17.7h43.8V182.1z M89,179.2h38v-11.9H89V179.2z"/>
	</g>
	<g>
		<rect x="94.2" y="153.6" class="st1" width="27.6" height="12.3"/>
		<path class="st0" d="M122.9,167.1H93v-14.7h29.9V167.1z M95.4,164.7h25.2v-10H95.4V164.7z"/>
	</g>
	<g>
		<rect x="79" y="152" class="st0" width="61" height="3"/>
	</g>
	<g>
		<path class="st0" d="M108.2,138.8c0,0-4.8,3.2-4.8,8.2h2c0,0,0.7-3.1,2.8-3.1"/>
	</g>
	<g>
		<path class="st0" d="M107.8,138.8c0,0,4.8,3.2,4.8,8.2h-2c0,0-0.7-3.1-2.8-3.1"/>
	</g>
	<g>
		<g>
			<path class="st0" d="M47.2,178.3l-30,0c-3.6-0.5-10.4-3.3-10.4-9.8c0-4,3.9-9.1,8-14.4c3.5-4.6,7.2-9.4,7.2-12.2V123h3v18.8
				c0,3.9-3.9,8.8-7.9,14c-3.4,4.5-7.4,9.4-7.4,12.5c0,5.4,6.9,6.8,7.8,6.8h29.4c0.8,0,5.4-1.4,5.4-6.8c0-3-4.4-8-8.4-12.5
				c-4.6-5.2-8.9-10.1-8.9-14V123h3v18.8c0,2.8,4.3,7.8,8.1,12.2c4.7,5.3,9.1,10.4,9.1,14.5c0,6.5-5.2,9.3-7.9,9.8L47.2,178.3z"/>
		</g>
		<g>
			<path class="st0" d="M38.2,124.1h-15c-2.7,0-4.8-2.2-4.8-4.8v-0.5c0-2.7,2.2-4.8,4.8-4.8h15c2.7,0,4.8,2.2,4.8,4.8v0.5
				C43,121.9,40.8,124.1,38.2,124.1z M23.1,116.9c-1.1,0-1.9,0.9-1.9,1.9v0.5c0,1.1,0.9,1.9,1.9,1.9h15c1.1,0,1.9-0.9,1.9-1.9v-0.5
				c0-1.1-0.9-1.9-1.9-1.9H23.1z"/>
		</g>
		<g>
			<path class="st1" d="M36.6,153H24.4c-1.2,2-2.6,3.4-4,5c-2.4,2.8-6.5,7.7-6.7,9.5c0,1.2,2,0.6,2.4,1.6h29.4
				c2.1-1,2.1-1.2,2.1-1.6c-0.3-1.7-4.4-6.6-6.8-9.4C39.3,156.4,37.9,155,36.6,153z"/>
		</g>
	</g>
	<g>
		<g>
			<path class="st0" d="M285.2,178.3l-30,0c-3.6-0.5-10.4-3.3-10.4-9.8c0-4,3.9-9.1,8-14.4c3.5-4.6,7.2-9.4,7.2-12.2V136h2.7
				l-2.7,0.1l3.1,0v5.7c0,3.9-3.9,8.8-7.8,14c-3.4,4.5-7.4,9.4-7.4,12.5c0,5.4,6.9,6.8,7.8,6.8h29.4c0.8,0,5.4-1.4,5.4-6.8
				c0-3-4.4-8-8.4-12.5c-4.6-5.2-8.9-10.1-8.9-14V136h3v5.8c0,2.8,4.3,7.8,8.1,12.2c4.7,5.3,9.1,10.4,9.1,14.5
				c0,6.5-5.2,9.3-7.9,9.8L285.2,178.3z"/>
		</g>
		<g>
			<path class="st0" d="M274.7,137.2h-13.6c-2.7,0-4.8-2.2-4.8-4.8v-0.5c0-2.7,2.2-4.8,4.8-4.8h13.6c2.7,0,4.8,2.2,4.8,4.8v0.5
				C279.5,135,277.4,137.2,274.7,137.2z M261.1,130c-1.1,0-1.9,0.9-1.9,1.9v0.5c0,1.1,0.9,1.9,1.9,1.9h13.6c1.1,0,1.9-0.9,1.9-1.9
				v-0.5c0-1.1-0.9-1.9-1.9-1.9H261.1z"/>
		</g>
		<g>
			<path class="st1" d="M274.6,153h-12.2c-1.2,2-2.6,3.4-4,5c-2.4,2.8-6.5,7.7-6.7,9.5c0,1.2,2,0.6,2.4,1.6h29.4
				c2.1-1,2.1-1.2,2.1-1.6c-0.3-1.7-4.4-6.6-6.8-9.4C277.3,156.4,275.9,155,274.6,153z"/>
		</g>
	</g>
	<g>
		<path class="st0" d="M230.2,115.6H184c-6.3,0-11.4-5.1-11.4-11.4h2.9c0,4.7,3.8,8.5,8.5,8.5h46.3c4.7,0,8.5-3.8,8.5-8.5h2.9
			C241.6,110.5,236.5,115.6,230.2,115.6z"/>
	</g>
	<g>
		<rect x="206" y="114" class="st0" width="3" height="67"/>
	</g>
	<g>
		<path class="st0" d="M226.2,180.7h-2.9c0-3.3-2.7-5.9-5.9-5.9h-19.1c-3.3,0-5.9,2.7-5.9,5.9h-2.9c0-4.9,4-8.8,8.8-8.8h19.1
			C222.2,171.9,226.2,175.8,226.2,180.7z"/>
	</g>
	<g>
		<path class="st0" d="M270,117h-3V98.2c0-1.6-0.4-2.9-1.4-3.8c-2-1.9-6-1.8-6-1.8l-7.6,0V89h7.8c0.1,0,4.9,0.1,7.8,2.9
			c1.6,1.5,2.4,3.8,2.4,6.2V117z"/>
	</g>
	<g>
		<rect x="264" y="116" class="st0" width="9" height="2"/>
	</g>
	<g>
		<g>
			<path class="st1" d="M165.2,91.3c0,5.2,4.2,9.4,9.4,9.4s9.4-4.3,9.4-9.4c0-0.1,0-0.3,0-0.3h-18.7C165.2,91,165.2,91.2,165.2,91.3
				z"/>
		</g>
		<g>
			<path class="st1" d="M198.6,91.3c0,5.2,4.2,9.4,9.4,9.4s9.4-4.3,9.4-9.4c0-0.1,0-0.3,0-0.3h-18.7C198.6,91,198.6,91.2,198.6,91.3
				z"/>
		</g>
		<g>
			<path class="st1" d="M230.5,91.3c0,5.2,4.2,9.4,9.4,9.4s9.4-4.3,9.4-9.4c0-0.1,0-0.3,0-0.3h-18.7C230.5,91,230.5,91.2,230.5,91.3
				z"/>
		</g>
	</g>
</g>
<g>
	<circle class="st3" cx="29.1" cy="30.9" r="27.5"/>
	<g>
		<g>
			
				<image style="overflow:visible;opacity:0.27;" width="68" height="68" xlink:href="761AADE514665D01.png"  transform="matrix(1 0 0 1 -3 0)">
			</image>
			<g>
				<circle class="st4" cx="29.1" cy="30.9" r="18.6"/>
			</g>
		</g>
		<g>
			<g>
				<path class="st2" d="M27.7,39.4c-0.4,0-0.9,0-1.4-0.1c-0.5-0.1-0.9-0.1-1.4-0.2c-0.4-0.1-0.9-0.2-1.2-0.3s-0.7-0.2-0.9-0.3
					l0.7-3c0.4,0.2,0.9,0.4,1.6,0.6c0.6,0.2,1.5,0.3,2.4,0.3c1.1,0,1.9-0.2,2.4-0.6s0.8-1,0.8-1.7c0-0.4-0.1-0.8-0.3-1.1
					c-0.2-0.3-0.4-0.5-0.8-0.7c-0.3-0.2-0.7-0.3-1.1-0.4s-0.9-0.1-1.4-0.1h-1.4v-2.9h1.6c0.4,0,0.7,0,1-0.1s0.6-0.2,0.9-0.3
					c0.3-0.2,0.5-0.4,0.6-0.6c0.2-0.3,0.2-0.6,0.2-1c0-0.3-0.1-0.6-0.2-0.8s-0.3-0.4-0.5-0.6c-0.2-0.1-0.4-0.3-0.7-0.3
					c-0.3-0.1-0.5-0.1-0.8-0.1c-0.7,0-1.3,0.1-1.9,0.3c-0.6,0.2-1.1,0.5-1.6,0.8l-1.3-2.6c0.3-0.2,0.6-0.3,0.9-0.5
					c0.3-0.2,0.7-0.3,1.1-0.5c0.4-0.1,0.9-0.3,1.3-0.4c0.5-0.1,1-0.1,1.5-0.1c1,0,1.8,0.1,2.5,0.3c0.7,0.2,1.3,0.6,1.8,1
					c0.5,0.4,0.8,0.9,1,1.5c0.2,0.6,0.3,1.2,0.3,1.9c0,0.7-0.2,1.3-0.6,1.9c-0.4,0.6-0.9,1.1-1.5,1.4c0.9,0.4,1.5,0.9,2,1.6
					c0.5,0.7,0.7,1.5,0.7,2.5c0,0.8-0.1,1.5-0.4,2.1c-0.3,0.7-0.7,1.2-1.2,1.7c-0.5,0.5-1.2,0.8-2.1,1.1
					C29.9,39.3,28.9,39.4,27.7,39.4z"/>
			</g>
		</g>
	</g>
</g>
</svg>
