<?xml version="1.0" encoding="utf-8"?>
<!-- Generator: Adobe Illustrator 19.1.0, SVG Export Plug-In . SVG Version: 6.00 Build 0)  -->
<svg version="1.1" id="Capa_1" xmlns="http://www.w3.org/2000/svg" xmlns:xlink="http://www.w3.org/1999/xlink" x="0px" y="0px"
	 viewBox="0 0 213 210" style="enable-background:new 0 0 213 210;" xml:space="preserve">
<style type="text/css">
	.st0{fill:#EDF5FC;}
	.st1{fill:#005CB9;}
	.st2{fill:#FFFFFF;}
	.st3{fill:#1189E0;}
	.st4{fill:#2481D7;}
	.st5{fill:#90C0EB;}
	.st6{fill:#FFFFFF;stroke:#2481D7;stroke-width:2;stroke-miterlimit:10;}
	.st7{fill:#90C0EB;stroke:#2481D7;stroke-width:3;stroke-miterlimit:10;}
	.st8{fill:#E1EEFA;stroke:#2481D7;stroke-width:3;stroke-miterlimit:10;}
	.st9{fill:#FFFFFF;stroke:#2481D7;stroke-width:3;stroke-miterlimit:10;}
	.st10{fill:#FFC5A8;}
	.st11{fill:#E1EEFA;stroke:#2481D7;stroke-width:2.5;stroke-miterlimit:10;}
</style>
<g>
	<circle class="st0" cx="181" cy="30.9" r="27.5"/>
	<g>
		<g>
			
				<image style="overflow:visible;opacity:0.27;" width="68" height="68" xlink:href="DD4AFA76FF75784.png"  transform="matrix(1 0 0 1 149 0)">
			</image>
			<g>
				<circle class="st1" cx="181" cy="30.9" r="18.6"/>
			</g>
		</g>
		<g>
			<g>
				<path class="st2" d="M185.4,22.4v10h1.8v2.9h-1.8v3.7h-3.5v-3.7h-7.2v-2.6c0.4-0.7,0.8-1.5,1.3-2.4c0.5-0.9,1.1-1.8,1.8-2.7
					c0.6-0.9,1.3-1.9,2.1-2.8c0.7-0.9,1.4-1.7,2.2-2.4H185.4z M181.8,26.8c-0.6,0.8-1.3,1.7-2,2.7c-0.7,1-1.3,1.9-1.8,3h3.8V26.8z"
					/>
			</g>
		</g>
	</g>
</g>
<g>
	<path class="st3" d="M103.7,58.1c0,0,6.4-5.6,5.9-7.3c-0.1-0.5-0.8-0.3-1.2,0c0.5-1,0.7-1.2,0.3-1.6c-0.4-0.4-1.5,0.5-1.5,0.5
		s1.2-1.4,0.6-2c-0.6-0.6-1.6,0.6-1.6,0.6s1.1-1.2,0.6-1.7c-0.6-0.5-1,0-1.5,0.5c-0.5,0.5-2.5,3.5-2.5,3.5s0.7-2.1,1.3-3.1
		c0.6-1-0.3-1.9-1.5,0c-1.3,1.9-3,6.5-3,6.5L103.7,58.1z"/>
	<g>
		<path class="st4" d="M114.1,44.8v10.1c1.2-1.7,2.8-2.8,4.5-2.8c3.5,0,6.4,4.3,6.4,9.6c0,3.9-1.5,7.2-3.7,8.7h-1.7v-2.5h-5.5v1.3
			h1.5v9.4c7.5-0.9,13.3-8.1,13.3-16.8C128.9,52.3,122.3,44.8,114.1,44.8z"/>
		<rect x="106.9" y="55" class="st5" width="6" height="5.3"/>
		<g>
			<path class="st5" d="M111.2,62.5c0,0.2-0.1,0.4-0.2,0.6c-0.2,0.2-0.4,0.2-0.6,0.2h-0.8c-0.2,0-0.4-0.1-0.6-0.2
				c-0.2-0.2-0.2-0.4-0.2-0.6v-3.4h2.5V62.5z"/>
			<g>
				<g>
					<g>
						
							<rect x="102.4" y="56.6" transform="matrix(0.9284 0.3715 -0.3715 0.9284 29.0583 -36.0155)" class="st4" width="11.2" height="1.6"/>
					</g>
					<g>
						<polygon class="st4" points="102.5,56.1 106.9,60.2 112.9,60.2 						"/>
					</g>
				</g>
			</g>
			<path class="st5" d="M102.8,60.9c-0.2,0.2-0.4,0.3-0.6,0.3c-0.2,0-0.4-0.1-0.6-0.2l-0.6-0.6c-0.2-0.1-0.3-0.4-0.3-0.6
				c0-0.2,0.1-0.4,0.2-0.6l2.3-2.4l1.8,1.7L102.8,60.9z"/>
		</g>
		<rect x="105.7" y="38" class="st6" width="8.4" height="16.9"/>
		<rect x="101.2" y="66.1" class="st4" width="18.5" height="1.7"/>
		<rect x="106.9" y="31.7" class="st5" width="6" height="5.3"/>
		<rect x="106.5" y="30.4" class="st4" width="6.8" height="1.4"/>
		<path class="st6" d="M133.7,82.4c-0.2-0.2-0.5-0.3-0.8-0.3h-0.9v-0.8c0-0.2-0.1-0.4-0.2-0.6c-0.2-0.2-0.4-0.2-0.6-0.2h-2.2l-8-7.8
			c-0.2-0.2-0.5-0.4-0.8-0.5c-0.3-0.1-0.6-0.2-0.9-0.2h-0.1c-0.6,0-1.2,0.2-1.7,0.7c-0.5,0.5-0.7,1.1-0.7,1.7v6.1H99
			c-0.2,0-0.4,0.1-0.6,0.2c-0.2,0.2-0.2,0.4-0.2,0.6v0.8h-0.9c-0.3,0-0.6,0.1-0.8,0.3c-0.2,0.2-0.3,0.5-0.3,0.8v2.2h4.2
			c0-0.1,0.1-0.3,0.1-0.4c0.1-0.1,0.2-0.1,0.4-0.1h28.6c0.1,0,0.3,0.1,0.4,0.1c0.1,0.1,0.2,0.2,0.2,0.4h4.2v-2.2
			C134,82.9,133.9,82.6,133.7,82.4z"/>
		<g>
			<circle class="st4" cx="114.1" cy="44.8" r="3.8"/>
			<circle class="st2" cx="114.1" cy="44.8" r="1.6"/>
		</g>
	</g>
	<path class="st7" d="M62.8,57.8c0,0,13.7,9.3,18.5,9.2C86.1,66.8,99,53.5,99,53.5l5.2,5c0,0-12.4,14.8-21.1,16.8
		c-4.9,1.1-24.2-4.9-25.2-8.8"/>
	<g>
		<g>
			<polygon class="st8" points="87.7,197.5 63.1,186.9 62.5,186.4 62.5,186.3 62.5,138.5 55.5,138.5 55.5,186.3 32.9,197.5 
				35.9,197.5 58.1,193 58.8,200.5 61.8,200.5 62.5,193 83.5,197.5 			"/>
			<rect x="32.9" y="198.4" class="st5" width="3" height="3.1"/>
			<rect x="84.7" y="198.4" class="st5" width="3" height="3.1"/>
			<polygon class="st9" points="39.8,133.5 17,68.5 11.5,67.8 11.5,67.8 8.4,67.7 33,141.5 84.5,141.5 84.5,137.6 84.5,133.5 			"/>
			<rect x="51.2" y="141" class="st4" width="18.2" height="3.7"/>
			<circle class="st4" cx="34.4" cy="201.8" r="1.9"/>
			<circle class="st4" cx="60.3" cy="201.8" r="1.9"/>
			<circle class="st4" cx="86.2" cy="201.8" r="1.9"/>
		</g>
		<g>
			<path class="st7" d="M138.7,189.7L114.9,118c-1.8-2.7-4.8-4.3-8-4.3c0,0-13.5-1.3-31.9-1.8c-7.4-0.2-13.4-3.3-14.1-3.8H37.4
				c0,0.2-1.3,24.7,28.9,24.7c12.4,0,28.6,0,35.4,0l24.7,58.9L138.7,189.7z"/>
			<path class="st4" d="M138.7,189.7c0,0,8.4,2.5,11.5,2.7c4.1,0.3,5.1,5.2,5.1,5.2h-27.9c0,0-1.3-2.9-0.9-5.8
				c5.3-0.9,11.5-2,11.5-2"/>
			<polyline class="st8" points="48.5,47.8 50.9,28.1 61.5,20.9 56.3,53.5 			"/>
			<g>
				<path class="st8" d="M76.5,22.5c0,0-1.8,25.2-12.6,25.2c-6.8,0-11.4-4.3-11.4-11.9l1.1-13.3"/>
				<path class="st4" d="M56,22.5c0,0,15.1,5.5,21.3,0c6.1-5.5-2.8-11.6-12.4-11.6c-9.6,0-12.4,4.3-12.4,4.3L56,22.5z"/>
				<path class="st4" d="M52.4,15.3c0,0-3.7,0.2-5,3.4c-1.3,3.2-0.4,16.8,2.1,20C50,35.3,53,28.9,55.2,27c2.2-1.9,3.7-1.6,4.9,2
					c-0.7-4.6-0.4-6.5-0.4-6.5L52.4,15.3z"/>
			</g>
			<path class="st4" d="M55.2,27c0,0-2.3,3.6,0.2,10c-3.8,0.7-5.9,1.7-5.9,1.7s-1.9-3.5,0-6.4C51.4,29.4,55.2,27,55.2,27z"/>
			<path class="st9" d="M37.4,108.1c0,0-3.4-33.1,0-49.4c3.4-16.3,22.9-15.5,25.7,0c2.8,15.5-4.4,26.3-4,32.7
				c0.4,6.4,1.9,16.7,1.9,16.7H37.4z"/>
			<path class="st9" d="M113.1,79.6c0,0-34.5-2.8-48.3-19.2c-11.1-13.2-20.1,0-8.9,8.9c11.6,9.2,30.8,16,57,15.3
				C113,83.5,113.1,79.6,113.1,79.6z"/>
			<path class="st10" d="M113,84.6c0,0,6,0.7,6.7-0.5c0.3-0.3-0.3-0.6-0.7-0.7c0.8-0.2,1.1-0.3,1.1-0.7c0-0.4-1.1-0.6-1.1-0.6
				s1.5-0.1,1.4-0.7c0-0.7-1.2-0.6-1.2-0.6s1.3,0,1.3-0.6c0-0.6-0.5-0.6-1.1-0.6c-0.5,0-3.4,0.5-3.4,0.5s1.6-0.7,2.5-0.9
				c0.9-0.2,1-1.2-0.8-0.9c-1.8,0.3-4.5,1.7-4.5,1.7L113,84.6z"/>
		</g>
	</g>
	<path class="st3" d="M113,85.3c0,0,8.5,0.9,9.3-0.7c0.3-0.4-0.3-0.7-0.8-0.8c1-0.3,1.3-0.3,1.4-0.9c0-0.5-1.4-0.7-1.4-0.7
		s1.8-0.1,1.8-0.9c0-0.8-1.6-0.8-1.6-0.8s1.6,0,1.6-0.8c0-0.7-0.7-0.8-1.4-0.8c-0.7,0-4.3,0.6-4.3,0.6s2-0.9,3.1-1.1
		c1.1-0.2,1.2-1.5-1-1.1c-2.3,0.3-6.8,2.3-6.8,2.3V85.3z"/>
</g>
<polyline class="st11" points="190,99 88.1,99 88.1,86.5 190,86.5 "/>
<rect x="108" y="99" class="st11" width="5" height="104.7"/>
<rect x="106.9" y="70.1" class="st4" width="12.7" height="1.7"/>
</svg>
