<?xml version="1.0" encoding="utf-8"?>
<!-- Generator: Adobe Illustrator 19.1.0, SVG Export Plug-In . SVG Version: 6.00 Build 0)  -->
<svg version="1.1" id="Capa_1" xmlns="http://www.w3.org/2000/svg" xmlns:xlink="http://www.w3.org/1999/xlink" x="0px" y="0px"
	 viewBox="0 0 262.9 173" style="enable-background:new 0 0 262.9 173;" xml:space="preserve">
<style type="text/css">
	.st0{fill:url(#SVGID_1_);}
	.st1{fill:#FFFFFF;}
	.st2{fill:#2481D7;}
	.st3{fill:#90C0EB;}
	.st4{fill:#FFFFFF;stroke:#2481D7;stroke-width:5;stroke-miterlimit:10;}
	.st5{fill:url(#SVGID_2_);}
	.st6{fill:#EDF5FC;}
	.st7{fill:#005CB9;}
</style>
<linearGradient id="SVGID_1_" gradientUnits="userSpaceOnUse" x1="43" y1="134.2478" x2="237.9474" y2="134.2478">
	<stop  offset="0" style="stop-color:#E1EEFA"/>
	<stop  offset="1" style="stop-color:#FFFFFF"/>
</linearGradient>
<polygon class="st0" points="241.9,162.5 0,162.5 85.4,106 241.9,106.5 "/>
<g>
	<g>
		<g>
			<path class="st1" d="M105.9,62v30.2c0,4.4,5,12.2,11,19.1c7.4,8.4,14.4,16.3,14.4,22.7c0,10.2-8.1,14.5-12.3,15.4l-0.3,0l-47.1,0
				c-5.6-0.8-16.3-5.1-16.3-15.4c0-6.3,5.7-14.2,12-22.6c5.5-7.2,12.6-14.7,12.6-19.2V62"/>
		</g>
		<g>
			<path class="st2" d="M118.8,149.5l-47.1,0c-5.6-0.8-16.3-5.1-16.3-15.4c0-6.3,5.7-14.2,12-22.6c5.5-7.2,12.6-14.7,12.6-19.2V62h4
				v30.2c0,6.1-7,13.8-13.2,22c-5.4,7.1-11.1,14.1-11.1,18.9c0,8.4,11.2,9.9,12.6,9.9h46.1c1.3-1,8.5-1.6,8.5-9.9
				c0-4.7-6.6-12.2-12.9-19.2c-7.3-8.2-11.9-15.5-11.9-21.6V62h4v30.2c0,4.4,5,12.2,11,19.1c7.4,8.4,14.4,16.3,14.4,22.7
				c0,10.2-8.1,14.5-12.3,15.4L118.8,149.5z"/>
		</g>
		<g>
			<path class="st2" d="M102.4,64.5H83.2c-4.2,0-7.6-3.4-7.6-7.6v-0.7c0-4.2,3.4-7.6,7.6-7.6h19.2c4.2,0,7.6,3.4,7.6,7.6v0.7
				C110,61.1,106.6,64.5,102.4,64.5z M83.2,53.2c-1.7,0-3,1.4-3,3v0.7c0,1.7,1.4,3,3,3h19.2c1.7,0,3-1.4,3-3v-0.7c0-1.7-1.4-3-3-3
				H83.2z"/>
		</g>
		<g>
			<path class="st3" d="M102.1,111H83c-2,3-4.1,4.7-6.3,7.2c-3.8,4.4-10.2,11.8-10.6,14.6c0,1.9,3.2,2.2,3.8,2.2H116
				c3.3,0,3.3-1.9,3.3-2.5c-0.4-2.6-6.9-9.7-10.7-14.1C106.3,115.8,104.1,114,102.1,111z"/>
		</g>
	</g>
	<path class="st1" d="M105,112.5c0,2.5-2,4.5-4.5,4.5s-4.5-2-4.5-4.5s3.8-4.5,6.2-4.5S105,110,105,112.5z"/>
	<circle class="st1" cx="102.3" cy="123.1" r="1.8"/>
</g>
<g>
	<path class="st4" d="M176,64.9v72.4c0,6.7-5.5,12.2-12.2,12.2h0c-6.7,0-12.2-5.5-12.2-12.2V64.9"/>
	<path class="st3" d="M170.3,97.7v38.6c0,3.6-2.9,6.5-6.5,6.5l0,0c-3.6,0-6.5-2.9-6.5-6.5V97.7"/>
	<circle class="st1" cx="166.5" cy="102.3" r="2"/>
	<g>
		<path class="st2" d="M174.7,67.9H153c-4.7,0-8.6-3.8-8.6-8.6v-0.8c0-4.7,3.8-8.6,8.6-8.6h21.7c4.7,0,8.6,3.8,8.6,8.6v0.8
			C183.3,64,179.4,67.9,174.7,67.9z M153,55.1c-1.9,0-3.4,1.5-3.4,3.4v0.8c0,1.9,1.5,3.4,3.4,3.4h21.7c1.9,0,3.4-1.5,3.4-3.4v-0.8
			c0-1.9-1.5-3.4-3.4-3.4H153z"/>
	</g>
</g>
<linearGradient id="SVGID_2_" gradientUnits="userSpaceOnUse" x1="-5.483626e-06" y1="167.4382" x2="101.9669" y2="167.4382">
	<stop  offset="0" style="stop-color:#E1EEFA"/>
	<stop  offset="1" style="stop-color:#FFFFFF"/>
</linearGradient>
<rect x="0" y="162.5" class="st5" width="241.9" height="9.9"/>
<g>
	<circle class="st6" cx="229.9" cy="34.1" r="27.5"/>
	<g>
		<g>
			
				<image style="overflow:visible;opacity:0.27;" width="68" height="68" xlink:href="D06295498FC580AC.png"  transform="matrix(1 0 0 1 197.946 3)">
			</image>
			<g>
				<circle class="st7" cx="229.9" cy="34.1" r="18.6"/>
			</g>
		</g>
		<g>
			<g>
				<path class="st1" d="M235,30c0,0.6-0.1,1.2-0.4,1.8c-0.2,0.6-0.6,1.1-0.9,1.6c-0.4,0.5-0.8,1-1.3,1.5c-0.5,0.5-1,0.9-1.4,1.4
					c-0.2,0.2-0.5,0.5-0.8,0.8c-0.3,0.3-0.5,0.6-0.8,0.9c-0.3,0.3-0.5,0.6-0.7,0.8c-0.2,0.2-0.3,0.5-0.4,0.6h7.2v3h-11.1
					c0-0.2,0-0.4,0-0.7s0-0.5,0-0.6c0-0.8,0.1-1.5,0.4-2.1c0.2-0.6,0.6-1.2,1-1.8c0.4-0.6,0.9-1.1,1.4-1.6c0.5-0.5,1-1,1.5-1.4
					c0.4-0.4,0.7-0.7,1.1-1c0.3-0.3,0.6-0.6,0.9-1s0.5-0.6,0.6-0.9s0.2-0.6,0.2-1c0-0.7-0.2-1.2-0.6-1.5c-0.4-0.3-0.9-0.4-1.5-0.4
					c-0.4,0-0.8,0.1-1.2,0.2c-0.4,0.1-0.7,0.3-1,0.5c-0.3,0.2-0.6,0.4-0.8,0.6c-0.2,0.2-0.4,0.3-0.5,0.4l-1.8-2.5
					c0.7-0.7,1.5-1.2,2.5-1.6c0.9-0.4,1.9-0.6,3-0.6c1,0,1.8,0.1,2.5,0.3c0.7,0.2,1.3,0.5,1.7,1c0.5,0.4,0.8,0.9,1,1.5
					C234.9,28.6,235,29.2,235,30z"/>
			</g>
		</g>
	</g>
</g>
</svg>
