<?xml version="1.0" encoding="utf-8"?>
<!-- Generator: Adobe Illustrator 19.1.0, SVG Export Plug-In . SVG Version: 6.00 Build 0)  -->
<svg version="1.1" id="Capa_1" xmlns="http://www.w3.org/2000/svg" xmlns:xlink="http://www.w3.org/1999/xlink" x="0px" y="0px"
	 viewBox="0 0 139.5 155.6" style="enable-background:new 0 0 139.5 155.6;" xml:space="preserve">
<style type="text/css">
	.st0{fill:#E1EEFA;}
	.st1{fill:#EDF5FC;}
	.st2{fill:#005CB9;}
	.st3{fill:#FFFFFF;}
	.st4{fill:#2481D7;}
</style>
<g>
	<polygon class="st0" points="111.7,134.2 27.6,134.2 30.4,129 108.6,129 	"/>
	<polygon class="st0" points="111.7,113.3 27.6,113.3 30.4,108.1 108.6,108.1 	"/>
	<g>
		<circle class="st1" cx="35.1" cy="31" r="27.5"/>
		<g>
			<g>
				
					<image style="overflow:visible;opacity:0.27;" width="68" height="68" xlink:href="873CF4F9C77464D8.png"  transform="matrix(1 0 0 1 3 0)">
				</image>
				<g>
					<circle class="st2" cx="35.1" cy="31" r="18.6"/>
				</g>
			</g>
			<g>
				<g>
					<path class="st3" d="M29.9,26c0.5-0.2,1-0.4,1.5-0.7c0.5-0.2,1-0.5,1.5-0.8s0.9-0.6,1.4-0.9c0.4-0.3,0.8-0.7,1.2-1h2.5v16.7
						h-3.6v-12c-0.5,0.3-1,0.6-1.6,0.9s-1.2,0.5-1.7,0.7L29.9,26z"/>
				</g>
			</g>
		</g>
	</g>
	<rect x="34.8" y="93.4" class="st0" width="64.5" height="4.7"/>
	<polygon class="st0" points="85.9,89.8 39,89.8 39,85.1 86.5,85.1 	"/>
	<polygon class="st0" points="87.6,81.5 49.4,81.5 49.4,76.8 89.8,76.8 	"/>
	<path class="st4" d="M131.7,40.2c-0.6-3.1-2.5-5.8-5.1-7.6c-2.7-1.8-5.8-2.4-9-1.7c-3.1,0.6-5.8,2.4-7.6,5.1L89.5,67H40l-27.8,41
		h14l-14,21h14l-14,21h115l-14-21h14l-14-21h14L109,80.9l21-31.9C131.7,46.4,132.3,43.3,131.7,40.2z M90.1,74.2l12.7,8.3l-15.1,9.2
		L90.1,74.2z M105.2,79.1l-13-8.5l3.4-5.2l0,0l13-19.8l13,8.5L105.2,79.1z M119.4,146H20l11.2-17h76.9L119.4,146z M119.4,125H20
		l11.2-17h76.9L119.4,125z M119.4,104H20l22.2-33h44.7L86,71.7v0l-0.1,0.5l-3.8,27.6l23.7-14.5l0.2-0.5v0l0.3-0.1L119.4,104z
		 M126.5,46.8l-2.5,3.8l-13-8.5l2.5-3.8c1.1-1.7,2.9-2.9,4.9-3.3c2-0.4,4.1,0,5.8,1.1c1.7,1.1,2.9,2.9,3.3,4.9
		C128,43,127.6,45.1,126.5,46.8z"/>
</g>
</svg>
