<?xml version="1.0" encoding="utf-8"?>
<!-- Generator: Adobe Illustrator 21.1.0, SVG Export Plug-In . SVG Version: 6.00 Build 0)  -->
<svg version="1.1" id="Capa_1" xmlns="http://www.w3.org/2000/svg" xmlns:xlink="http://www.w3.org/1999/xlink" x="0px" y="0px"
	 viewBox="0 0 213 210" style="enable-background:new 0 0 213 210;" xml:space="preserve">
<style type="text/css">
	.st0{fill:#EDF5FC;}
	.st1{fill:#005CB9;}
	.st2{fill:#1189E0;}
	.st3{fill:#2481D7;}
	.st4{fill:#90C0EB;}
	.st5{fill:#FFFFFF;stroke:#2481D7;stroke-width:2;stroke-miterlimit:10;}
	.st6{fill:#FFFFFF;}
	.st7{fill:#90C0EB;stroke:#2481D7;stroke-width:3;stroke-miterlimit:10;}
	.st8{fill:#E1EEFA;stroke:#2481D7;stroke-width:3;stroke-miterlimit:10;}
	.st9{fill:#FFFFFF;stroke:#2481D7;stroke-width:3;stroke-miterlimit:10;}
	.st10{fill:#FFC5A8;}
	.st11{fill:#E1EEFA;stroke:#2481D7;stroke-width:2.5;stroke-miterlimit:10;}
	.st12{fill:#E1EEFA;}
</style>
<g>
	<circle class="st0" cx="181" cy="30.9" r="27.5"/>
	<g>
		<g>
			<g>
				<circle class="st1" cx="181" cy="30.9" r="18.6"/>
			</g>
		</g>
	</g>
</g>
<g>
	<path class="st2" d="M103.7,273.9c0,0,6.4-5.6,5.9-7.3c-0.1-0.5-0.8-0.3-1.2,0c0.5-1,0.7-1.2,0.3-1.6c-0.4-0.4-1.5,0.5-1.5,0.5
		s1.2-1.4,0.6-2s-1.6,0.6-1.6,0.6s1.1-1.2,0.6-1.7c-0.6-0.5-1,0-1.5,0.5s-2.5,3.5-2.5,3.5s0.7-2.1,1.3-3.1c0.6-1-0.3-1.9-1.5,0
		c-1.3,1.9-3,6.5-3,6.5L103.7,273.9z"/>
	<g>
		<path class="st3" d="M114.1,260.6v10.1c1.2-1.7,2.8-2.8,4.5-2.8c3.5,0,6.4,4.3,6.4,9.6c0,3.9-1.5,7.2-3.7,8.7h-1.7v-2.5h-5.5v1.3
			h1.5v9.4c7.5-0.9,13.3-8.1,13.3-16.8C128.9,268.1,122.3,260.6,114.1,260.6z"/>
		<rect x="106.9" y="270.8" class="st4" width="6" height="5.3"/>
		<g>
			<path class="st4" d="M111.2,278.3c0,0.2-0.1,0.4-0.2,0.6c-0.2,0.2-0.4,0.2-0.6,0.2h-0.8c-0.2,0-0.4-0.1-0.6-0.2
				c-0.2-0.2-0.2-0.4-0.2-0.6v-3.4h2.5v3.4H111.2z"/>
			<g>
				<g>
					<g>
						
							<rect x="107.2" y="267.6" transform="matrix(0.3715 -0.9284 0.9284 0.3715 -185.7529 271.976)" class="st3" width="1.6" height="11.2"/>
					</g>
					<g>
						<polygon class="st3" points="102.5,271.9 106.9,276 112.9,276 						"/>
					</g>
				</g>
			</g>
			<path class="st4" d="M102.8,276.7c-0.2,0.2-0.4,0.3-0.6,0.3s-0.4-0.1-0.6-0.2l-0.6-0.6c-0.2-0.1-0.3-0.4-0.3-0.6s0.1-0.4,0.2-0.6
				l2.3-2.4l1.8,1.7L102.8,276.7z"/>
		</g>
		<rect x="105.7" y="253.8" class="st5" width="8.4" height="16.9"/>
		<rect x="101.2" y="281.9" class="st3" width="18.5" height="1.7"/>
		<rect x="106.9" y="247.5" class="st4" width="6" height="5.3"/>
		<rect x="106.5" y="246.2" class="st3" width="6.8" height="1.4"/>
		<path class="st5" d="M133.7,298.2c-0.2-0.2-0.5-0.3-0.8-0.3H132v-0.8c0-0.2-0.1-0.4-0.2-0.6c-0.2-0.2-0.4-0.2-0.6-0.2H129l-8-7.8
			c-0.2-0.2-0.5-0.4-0.8-0.5s-0.6-0.2-0.9-0.2h-0.1c-0.6,0-1.2,0.2-1.7,0.7s-0.7,1.1-0.7,1.7v6.1H99c-0.2,0-0.4,0.1-0.6,0.2
			c-0.2,0.2-0.2,0.4-0.2,0.6v0.8h-0.9c-0.3,0-0.6,0.1-0.8,0.3c-0.2,0.2-0.3,0.5-0.3,0.8v2.2h4.2c0-0.1,0.1-0.3,0.1-0.4
			c0.1-0.1,0.2-0.1,0.4-0.1h28.6c0.1,0,0.3,0.1,0.4,0.1c0.1,0.1,0.2,0.2,0.2,0.4h4.2V299C134,298.7,133.9,298.4,133.7,298.2z"/>
		<g>
			<circle class="st3" cx="114.1" cy="260.6" r="3.8"/>
			<circle class="st6" cx="114.1" cy="260.6" r="1.6"/>
		</g>
	</g>
	<path class="st7" d="M62.8,273.6c0,0,13.7,9.3,18.5,9.2c4.8-0.2,17.7-13.5,17.7-13.5l5.2,5c0,0-12.4,14.8-21.1,16.8
		c-4.9,1.1-24.2-4.9-25.2-8.8"/>
	<g>
		<g>
			<polygon class="st8" points="87.7,413.3 63.1,402.7 62.5,402.2 62.5,402.1 62.5,354.3 55.5,354.3 55.5,402.1 32.9,413.3 
				35.9,413.3 58.1,408.8 58.8,416.3 61.8,416.3 62.5,408.8 83.5,413.3 			"/>
			<rect x="32.9" y="414.2" class="st4" width="3" height="3.1"/>
			<rect x="84.7" y="414.2" class="st4" width="3" height="3.1"/>
			<polygon class="st9" points="39.8,349.3 17,284.3 11.5,283.6 11.5,283.6 8.4,283.5 33,357.3 84.5,357.3 84.5,353.4 84.5,349.3 
							"/>
			<rect x="51.2" y="356.8" class="st3" width="18.2" height="3.7"/>
			<circle class="st3" cx="34.4" cy="417.6" r="1.9"/>
			<circle class="st3" cx="60.3" cy="417.6" r="1.9"/>
			<circle class="st3" cx="86.2" cy="417.6" r="1.9"/>
		</g>
		<g>
			<path class="st7" d="M138.7,405.5l-23.8-71.7c-1.8-2.7-4.8-4.3-8-4.3c0,0-13.5-1.3-31.9-1.8c-7.4-0.2-13.4-3.3-14.1-3.8H37.4
				c0,0.2-1.3,24.7,28.9,24.7c12.4,0,28.6,0,35.4,0l24.7,58.9L138.7,405.5z"/>
			<path class="st3" d="M138.7,405.5c0,0,8.4,2.5,11.5,2.7c4.1,0.3,5.1,5.2,5.1,5.2h-27.9c0,0-1.3-2.9-0.9-5.8
				c5.3-0.9,11.5-2,11.5-2"/>
			<polyline class="st8" points="48.5,263.6 50.9,243.9 61.5,236.7 56.3,269.3 			"/>
			<g>
				<path class="st8" d="M76.5,238.3c0,0-1.8,25.2-12.6,25.2c-6.8,0-11.4-4.3-11.4-11.9l1.1-13.3"/>
				<path class="st3" d="M56,238.3c0,0,15.1,5.5,21.3,0c6.1-5.5-2.8-11.6-12.4-11.6S52.5,231,52.5,231L56,238.3z"/>
				<path class="st3" d="M52.4,231.1c0,0-3.7,0.2-5,3.4s-0.4,16.8,2.1,20c0.5-3.4,3.5-9.8,5.7-11.7s3.7-1.6,4.9,2
					c-0.7-4.6-0.4-6.5-0.4-6.5L52.4,231.1z"/>
			</g>
			<path class="st3" d="M55.2,242.8c0,0-2.3,3.6,0.2,10c-3.8,0.7-5.9,1.7-5.9,1.7s-1.9-3.5,0-6.4C51.4,245.2,55.2,242.8,55.2,242.8z
				"/>
			<path class="st9" d="M37.4,323.9c0,0-3.4-33.1,0-49.4s22.9-15.5,25.7,0s-4.4,26.3-4,32.7c0.4,6.4,1.9,16.7,1.9,16.7L37.4,323.9z"
				/>
			<path class="st9" d="M113.1,295.4c0,0-34.5-2.8-48.3-19.2c-11.1-13.2-20.1,0-8.9,8.9c11.6,9.2,30.8,16,57,15.3
				C113,299.3,113.1,295.4,113.1,295.4z"/>
			<path class="st10" d="M113,300.4c0,0,6,0.7,6.7-0.5c0.3-0.3-0.3-0.6-0.7-0.7c0.8-0.2,1.1-0.3,1.1-0.7s-1.1-0.6-1.1-0.6
				s1.5-0.1,1.4-0.7c0-0.7-1.2-0.6-1.2-0.6s1.3,0,1.3-0.6s-0.5-0.6-1.1-0.6c-0.5,0-3.4,0.5-3.4,0.5s1.6-0.7,2.5-0.9
				c0.9-0.2,1-1.2-0.8-0.9c-1.8,0.3-4.5,1.7-4.5,1.7L113,300.4z"/>
		</g>
	</g>
	<path class="st2" d="M113,301.1c0,0,8.5,0.9,9.3-0.7c0.3-0.4-0.3-0.7-0.8-0.8c1-0.3,1.3-0.3,1.4-0.9c0-0.5-1.4-0.7-1.4-0.7
		s1.8-0.1,1.8-0.9s-1.6-0.8-1.6-0.8s1.6,0,1.6-0.8c0-0.7-0.7-0.8-1.4-0.8c-0.7,0-4.3,0.6-4.3,0.6s2-0.9,3.1-1.1s1.2-1.5-1-1.1
		c-2.3,0.3-6.8,2.3-6.8,2.3v5.7L113,301.1L113,301.1z"/>
</g>
<polyline class="st11" points="190,314.8 88.1,314.8 88.1,302.3 190,302.3 "/>
<rect x="108" y="314.8" class="st11" width="5" height="104.7"/>
<rect x="106.9" y="285.9" class="st3" width="12.7" height="1.7"/>
<g>
	<path class="st3" d="M-48.5,34h-100.3h-6.5v6.5v143.7v6.5h6.5h100.3h6.4v-6.5V40.5V34H-48.5z M-48.5,184.2h-100.3V40.5h100.3V184.2
		z"/>
	<polygon class="st4" points="-95.8,168.1 -115.3,148.6 -119.8,153.2 -96,177 -95.8,176.8 -95.5,177 -57.2,138.7 -61.8,134.2 	"/>
	<rect x="-140" y="55.9" class="st12" width="82.8" height="6.5"/>
	<rect x="-140" y="67" class="st12" width="82.8" height="6.5"/>
	<rect x="-140" y="78.1" class="st12" width="82.8" height="6.5"/>
	<rect x="-140" y="89.2" class="st12" width="82.8" height="6.5"/>
	<rect x="-140" y="100.3" class="st12" width="82.8" height="6.5"/>
	<rect x="-140" y="111.4" class="st12" width="55.9" height="6.5"/>
</g>
<g>
	<path class="st3" d="M165.7,128.5c-1.1,0-1.9,0.7-1.9,1.9v6.4c0,0.9-0.2,4.1-2.8,6.7c-1.9,1.9-4.1,2.8-6.7,2.8H42.8
		c-5.2,0-9.3-4.3-9.3-9.3V62.3c0-5.2,4.3-9.3,9.3-9.3h111.6c5.2,0,9.3,4.3,9.3,9.3V67c0,1.1,0.7,1.9,1.9,1.9c1.1,0,1.9-0.7,1.9-1.9
		v-4.7c0-7.3-6-13.1-13.1-13.1H42.8c-7.3,0-13.1,6-13.1,13.1v74.4c0,7.3,6,13.1,13.1,13.1h41.1L79,168.3c-0.4,1.7,0,3.4,0.9,4.7
		c1.1,1.5,3.2,2.4,5,2.4h28.2c2.1,0,3.9-0.9,5-2.4c1.1-1.3,1.5-3.2,0.9-4.7l-4.9-18.5h39.6c3.6,0,6.7-1.3,9.3-3.9
		c3.6-3.6,3.9-7.7,3.9-9.3v-6.4C167.5,129.2,166.6,128.5,165.7,128.5z M115.5,170.7c-0.6,0.6-1.3,0.9-2.2,0.9H85.1
		c-0.9,0-1.7-0.4-2.2-0.9c-0.2-0.4-0.6-0.7-0.4-1.5l5.2-19.3h23.2l4.9,19.3C115.9,169.8,115.7,170.4,115.5,170.7z"/>
	<path class="st12" d="M165.7,73.5c-14.2,0-25.8,11.6-25.8,25.8c0,2.1,0.2,3.9,0.7,5.8l-10.8,3.2c-1.1-4.3-5-7.7-9.7-7.7
		c-3,0-5.6,1.3-7.5,3.4l-17-11.4h-0.2c0.7-1.5,1.3-3.2,1.3-4.9c0-5.6-4.5-10.1-10.1-10.1s-10.1,4.5-10.1,10.1c0,2.2,0.7,4.1,1.9,5.8
		l-15.9,15.9c-0.2,0.2-0.4,0.4-0.4,0.6c-1.7-1.5-3.9-2.4-6.4-2.4c-5.6,0-10.1,4.5-10.1,10.1s4.5,10.1,10.1,10.1s10.1-4.5,10.1-10.1
		c0-1.9-0.6-3.6-1.5-5c0.4,0,0.7-0.2,0.9-0.6l15.9-15.9c1.5,0.9,3.4,1.7,5.4,1.7c2.4,0,4.7-0.9,6.4-2.4c0.2,0.2,0.2,0.4,0.4,0.4
		l17,11.4c-0.4,1.1-0.7,2.2-0.7,3.6c0,5.6,4.5,10.1,10.1,10.1c5,0,9.2-3.7,9.9-8.6l11.8-3.4c3.7,9.7,13.1,16.5,24.1,16.5
		c14.2,0,25.8-11.6,25.8-25.8C191.5,85.1,179.9,73.5,165.7,73.5z M55.9,124c-3.6,0-6.4-2.8-6.4-6.4s2.8-6.4,6.4-6.4s6.4,2.8,6.4,6.4
		C62.1,121.2,59.3,124,55.9,124z M86.6,93.9c-1.5,0-2.6-0.6-3.7-1.3c0-0.2-0.2-0.4-0.4-0.6c-0.2-0.2-0.4-0.4-0.7-0.4
		c-0.9-1.1-1.5-2.4-1.5-4.1c0-3.6,2.8-6.4,6.4-6.4s6.4,2.8,6.4,6.4C92.9,91.1,90.1,93.9,86.6,93.9z M119.8,117.1
		c-3.6,0-6.4-2.8-6.4-6.4s2.8-6.4,6.4-6.4s6.4,2.8,6.4,6.4C126.2,114.3,123.4,117.1,119.8,117.1z M165.7,121.6
		c-12.2,0-22.1-9.9-22.1-22.1s9.9-22.1,22.1-22.1s22.1,9.9,22.1,22.1S177.8,121.6,165.7,121.6z"/>
	<path class="st4" d="M174.3,90L163,105.1l-6.2-6c-0.7-0.7-1.9-0.7-2.6,0s-0.7,1.9,0,2.6l7.9,7.5c0,0,0,0,0.2,0l0,0
		c0,0,0.2,0.2,0.4,0.2c0,0,0.2,0,0.2,0.2c0.2,0,0.4,0.2,0.6,0.2l0,0l0,0c0.2,0,0.6,0,0.7-0.2l0.2-0.2c0.2,0,0.2-0.2,0.4-0.2
		c0,0,0,0,0-0.2l0,0l12.5-16.8c0.6-0.7,0.4-2.1-0.4-2.6C176.1,88.8,174.8,89,174.3,90z"/>
</g>
<circle class="st4" cx="86.1" cy="87.4" r="11.8"/>
<g>
	<path class="st6" d="M180.8,39.3c-0.4,0-0.9,0-1.4-0.1c-0.5-0.1-0.9-0.1-1.4-0.2c-0.4-0.1-0.8-0.2-1.2-0.3
		c-0.4-0.1-0.6-0.2-0.9-0.3l0.7-2.9c0.4,0.2,0.9,0.4,1.6,0.6c0.6,0.2,1.4,0.3,2.4,0.3c1.1,0,1.9-0.2,2.4-0.6s0.8-1,0.8-1.7
		c0-0.4-0.1-0.8-0.3-1.1c-0.2-0.3-0.4-0.5-0.7-0.7c-0.3-0.2-0.7-0.3-1.1-0.4c-0.4-0.1-0.9-0.1-1.4-0.1h-1.4v-2.8h1.6
		c0.3,0,0.7,0,1-0.1c0.3-0.1,0.6-0.2,0.9-0.3c0.3-0.2,0.5-0.4,0.6-0.6c0.1-0.3,0.2-0.6,0.2-1c0-0.3-0.1-0.6-0.2-0.8
		c-0.1-0.2-0.3-0.4-0.5-0.5c-0.2-0.1-0.4-0.2-0.7-0.3s-0.5-0.1-0.8-0.1c-0.7,0-1.3,0.1-1.9,0.3c-0.6,0.2-1.1,0.5-1.6,0.8l-1.3-2.6
		c0.3-0.2,0.5-0.3,0.9-0.5c0.3-0.2,0.7-0.3,1.1-0.5c0.4-0.1,0.9-0.3,1.3-0.4c0.5-0.1,1-0.1,1.5-0.1c1,0,1.8,0.1,2.5,0.3
		c0.7,0.2,1.3,0.6,1.7,1c0.5,0.4,0.8,0.9,1,1.5c0.2,0.6,0.3,1.2,0.3,1.8c0,0.6-0.2,1.3-0.5,1.9c-0.4,0.6-0.9,1.1-1.5,1.4
		c0.9,0.3,1.5,0.9,2,1.6c0.5,0.7,0.7,1.5,0.7,2.5c0,0.8-0.1,1.5-0.4,2.1c-0.3,0.6-0.6,1.2-1.2,1.7c-0.5,0.5-1.2,0.8-2.1,1.1
		C182.9,39.2,181.9,39.3,180.8,39.3z"/>
</g>
</svg>
