<?xml version="1.0" encoding="utf-8"?>
<!-- Generator: Adobe Illustrator 19.1.0, SVG Export Plug-In . SVG Version: 6.00 Build 0)  -->
<svg version="1.1" id="Capa_1" xmlns="http://www.w3.org/2000/svg" xmlns:xlink="http://www.w3.org/1999/xlink" x="0px" y="0px"
	 viewBox="0 0 181 153" style="enable-background:new 0 0 181 153;" xml:space="preserve">
<style type="text/css">
	.st0{fill:#EDF5FC;}
	.st1{fill:#005CB9;}
	.st2{fill:#FFFFFF;}
	.st3{fill:#E1EEFA;}
	.st4{fill:none;stroke:#2481D7;stroke-width:3;stroke-miterlimit:10;}
	.st5{fill:#E1EEFA;stroke:#2481D7;stroke-width:3;stroke-miterlimit:10;}
	.st6{fill:none;stroke:#E1EEFA;stroke-width:6;stroke-miterlimit:10;}
</style>
<g>
	<circle class="st0" cx="37" cy="36" r="27.5"/>
	<g>
		<g>
			
				<image style="overflow:visible;opacity:0.27;" width="68" height="68" xlink:href="1F60F928E329063D.png"  transform="matrix(1 0 0 1 5 5)">
			</image>
			<g>
				<circle class="st1" cx="37" cy="36" r="18.6"/>
			</g>
		</g>
		<g>
			<g>
				<path class="st2" d="M38.8,39.3c0-0.5-0.1-0.9-0.3-1.2c-0.2-0.4-0.6-0.7-1.1-0.9c-0.5-0.2-1.2-0.4-2.1-0.6s-2-0.2-3.3-0.2
					c0.2-1.5,0.3-3,0.4-4.5s0.2-3,0.3-4.3h9v3h-6c0,0.6-0.1,1.1-0.1,1.7c0,0.5-0.1,1-0.1,1.4c2.3,0.2,4.1,0.7,5.2,1.6
					c1.1,0.9,1.7,2.2,1.7,3.9c0,0.8-0.1,1.5-0.4,2.1s-0.7,1.2-1.2,1.7c-0.5,0.5-1.2,0.9-2.1,1.1c-0.8,0.3-1.8,0.4-2.9,0.4
					c-0.4,0-0.9,0-1.4-0.1c-0.5-0.1-0.9-0.1-1.4-0.2c-0.4-0.1-0.8-0.2-1.2-0.3c-0.4-0.1-0.6-0.2-0.8-0.3l0.6-3
					c0.4,0.2,0.9,0.3,1.6,0.5c0.7,0.2,1.4,0.3,2.4,0.3c1.1,0,1.9-0.2,2.4-0.7C38.6,40.4,38.8,39.9,38.8,39.3z"/>
			</g>
		</g>
	</g>
</g>
<g>
	<path class="st3" d="M165.9,44H61.8c-4.7,0-7.8,4.2-7.8,8.9V124h121V52.9C175,48.2,170.5,44,165.9,44z M166,114H62V52h104V114z"/>
	<path class="st4" d="M165.9,133.4H61.8c-4.7,0-8.5-3.8-8.5-8.5V52.9c0-4.7,3.8-8.5,8.5-8.5h104.1c4.7,0,8.5,3.8,8.5,8.5V125
		C174.3,129.6,170.5,133.4,165.9,133.4z"/>
	<line class="st4" x1="54" y1="123.5" x2="175" y2="123.5"/>
	<rect x="61.8" y="52.1" class="st4" width="104" height="62.5"/>
	<line class="st4" x1="84" y1="144.5" x2="144" y2="144.5"/>
	<rect x="103" y="133.4" class="st5" width="21.3" height="11.5"/>
	<rect x="116.9" y="71.2" class="st3" width="24" height="2.4"/>
	<rect x="116.9" y="78.2" class="st3" width="37.5" height="2.4"/>
	<rect x="116.9" y="83.8" class="st3" width="37.5" height="2.4"/>
	<rect x="116.9" y="89.5" class="st3" width="37.5" height="2.4"/>
	<rect x="116.9" y="95.2" class="st3" width="37.5" height="2.4"/>
	<polyline class="st6" points="79,85.8 84.6,91.5 101,75 	"/>
</g>
</svg>
