<?xml version="1.0" encoding="utf-8"?>
<!-- Generator: Adobe Illustrator 21.1.0, SVG Export Plug-In . SVG Version: 6.00 Build 0)  -->
<svg version="1.1" id="Capa_1" xmlns="http://www.w3.org/2000/svg" xmlns:xlink="http://www.w3.org/1999/xlink" x="0px" y="0px"
	 viewBox="0 0 222 185" style="enable-background:new 0 0 222 185;" xml:space="preserve">
<style type="text/css">
	.st0{fill:#2481D7;}
	.st1{fill:#90C0EB;}
	.st2{fill:#FFFFFF;}
	.st3{fill:#EDF5FC;}
	.st4{fill:#005CB9;}
</style>
<g>
	<g>
		<path class="st0" d="M207.4,329.5c-6,0-11.1-5-13.3-9h-6.9c-2.1,4-7.2,8.7-13.3,8.7c-7.9,0-14.4-6.6-14.4-14.7
			c0-8,6.5-14.6,14.4-14.6c6.1,0,11.1,4.6,13.3,8.6h6.9c2.2-4,7.3-8.9,13.3-8.9s11.1,4.9,13.3,8.9h5.4c2.2-4,7.2-8.6,13.3-8.6
			c7.9,0,14.4,6.6,14.4,14.7s-6.5,14.6-14.4,14.6c-6.1,0-11.1-4.7-13.3-8.7h-5.4C218.5,324.5,213.4,329.5,207.4,329.5z M185.4,317.5
			h10.8l0.4,1c1.5,3.9,5.9,8,11,8s9.4-4.2,11-8.1l0.4-1h9.3l0.4,1c1.5,3.8,5.8,7.8,11,7.8c6.3,0,11.5-5.2,11.5-11.7
			c0-6.4-5.2-11.7-11.5-11.7c-5.1,0-9.5,3.9-11,7.8l-0.7,0.9h-9.3l-0.4-0.8c-1.5-3.9-5.9-8-11-8s-9.5,4-11,7.9l-0.4,0.8h-10.8
			l-0.4-0.8c-1.5-3.8-5.8-7.8-11-7.8c-6.3,0-11.5,5.2-11.5,11.6s5.3,11.8,11.5,11.8c5.2,0,9.5-4,11-7.8L185.4,317.5z"/>
	</g>
	<g>
		<path class="st0" d="M161,317.5h-9.5c-5.2,0-10.5-5.6-10.5-10.9v-38.7c0-8.1-6.5-14.6-14.5-14.6s-14.5,6.5-14.5,14.6v8.6h-3v-8.6
			c0-9.7,7.9-17.5,17.5-17.5s17.5,7.8,17.5,17.5v38.7c0,3.7,3.9,7.9,7.5,7.9h9.5V317.5z"/>
	</g>
	<g>
		<path class="st0" d="M117.9,286.6h-16.2c-3.1,0-5.7-2.5-5.7-5.7c0-3.2,2.5-5.7,5.7-5.7h16.2c3.1,0,5.7,2.5,5.7,5.7
			C123.6,284.1,121.1,286.6,117.9,286.6z M101.7,278.2c-1.5,0-2.8,1.2-2.8,2.8c0,1.5,1.2,2.8,2.8,2.8h16.2c1.5,0,2.8-1.2,2.8-2.8
			c0-1.5-1.2-2.8-2.8-2.8H101.7z"/>
	</g>
	<g>
		<path class="st0" d="M109.8,356.8c-13.7,0-24.8-10.9-24.8-24.3c0-9.1,3.9-14,7.8-18.6c3.6-4.4,6.9-8.5,6.9-16.1v-14l19.3,0.6v13.1
			c0,7.6,3.5,11.8,7.1,16.1c3.9,4.7,8,9.6,8,18.7C134.1,346,123.4,356.8,109.8,356.8z M103,297.7c0,8.7-4.1,13.4-7.8,17.9
			c-3.7,4.5-7.2,8.7-7.2,16.8c0,11.8,9.7,21.4,21.7,21.4c12.1,0,21.5-9.5,21.5-21.5c0-8.1-3.6-12.3-7.4-16.8
			c-3.8-4.6-7.8-9.3-7.8-18v-10.4l-13-0.4C103,286.7,103,297.7,103,297.7z"/>
	</g>
	<g>
		<path class="st1" d="M91.4,327.5c-0.4,1-0.7,3.3-0.7,5c0,10.4,8.4,18.9,18.9,18.9s18.9-8.5,18.9-19c0-1.7-0.2-4-0.7-5H91.4V327.5z
			"/>
	</g>
	<g>
		<path class="st0" d="M32.5,339.5h-2.9c0-14,9.5-14,9.6-14H87v3H39.2C38.6,328.5,32.5,328.5,32.5,339.5z"/>
	</g>
	<g>
		<polygon class="st2" points="152.6,404.2 138,340.3 81.2,340.3 66.7,404.2 73.5,404.2 85.7,350.5 133.5,350.5 145.7,404.2 		"/>
		<path class="st0" d="M154.4,405.6h-9.8l-12.2-53.7H86.9l-12.2,53.7h-9.8l15.2-66.8h59.1L154.4,405.6z M146.9,402.7h3.9l-13.9-61
			H82.4l-13.9,61h3.9L84.6,349h50.1L146.9,402.7z"/>
	</g>
	<g>
		<rect x="87.5" y="389.4" class="st2" width="40.9" height="14.8"/>
		<path class="st0" d="M129.8,405.6H86v-17.7h43.8V405.6z M89,402.7h38v-11.9H89V402.7z"/>
	</g>
	<g>
		<rect x="94.2" y="377.1" class="st1" width="27.6" height="12.3"/>
		<path class="st0" d="M122.9,390.6H93v-14.7h29.9V390.6z M95.4,388.2h25.2v-10H95.4V388.2z"/>
	</g>
	<g>
		<rect x="79" y="375.5" class="st0" width="61" height="3"/>
	</g>
	<g>
		<path class="st0" d="M108.2,362.3c0,0-4.8,3.2-4.8,8.2h2c0,0,0.7-3.1,2.8-3.1"/>
	</g>
	<g>
		<path class="st0" d="M107.8,362.3c0,0,4.8,3.2,4.8,8.2h-2c0,0-0.7-3.1-2.8-3.1"/>
	</g>
	<g>
		<g>
			<path class="st0" d="M47.2,401.8h-30c-3.6-0.5-10.4-3.3-10.4-9.8c0-4,3.9-9.1,8-14.4c3.5-4.6,7.2-9.4,7.2-12.2v-18.9h3v18.8
				c0,3.9-3.9,8.8-7.9,14c-3.4,4.5-7.4,9.4-7.4,12.5c0,5.4,6.9,6.8,7.8,6.8h29.4c0.8,0,5.4-1.4,5.4-6.8c0-3-4.4-8-8.4-12.5
				c-4.6-5.2-8.9-10.1-8.9-14v-18.8h3v18.8c0,2.8,4.3,7.8,8.1,12.2c4.7,5.3,9.1,10.4,9.1,14.5C55.2,398.5,50,401.3,47.2,401.8
				L47.2,401.8z"/>
		</g>
		<g>
			<path class="st0" d="M38.2,347.6h-15c-2.7,0-4.8-2.2-4.8-4.8v-0.5c0-2.7,2.2-4.8,4.8-4.8h15c2.7,0,4.8,2.2,4.8,4.8v0.5
				C43,345.4,40.8,347.6,38.2,347.6z M23.1,340.4c-1.1,0-1.9,0.9-1.9,1.9v0.5c0,1.1,0.9,1.9,1.9,1.9h15c1.1,0,1.9-0.9,1.9-1.9v-0.5
				c0-1.1-0.9-1.9-1.9-1.9H23.1z"/>
		</g>
		<g>
			<path class="st1" d="M36.6,376.5H24.4c-1.2,2-2.6,3.4-4,5c-2.4,2.8-6.5,7.7-6.7,9.5c0,1.2,2,0.6,2.4,1.6h29.4
				c2.1-1,2.1-1.2,2.1-1.6c-0.3-1.7-4.4-6.6-6.8-9.4C39.3,379.9,37.9,378.5,36.6,376.5z"/>
		</g>
	</g>
	<g>
		<g>
			<path class="st0" d="M285.2,401.8h-30c-3.6-0.5-10.4-3.3-10.4-9.8c0-4,3.9-9.1,8-14.4c3.5-4.6,7.2-9.4,7.2-12.2v-5.9h2.7
				l-2.7,0.1h3.1v5.7c0,3.9-3.9,8.8-7.8,14c-3.4,4.5-7.4,9.4-7.4,12.5c0,5.4,6.9,6.8,7.8,6.8h29.4c0.8,0,5.4-1.4,5.4-6.8
				c0-3-4.4-8-8.4-12.5c-4.6-5.2-8.9-10.1-8.9-14v-5.8h3v5.8c0,2.8,4.3,7.8,8.1,12.2c4.7,5.3,9.1,10.4,9.1,14.5
				c0,6.5-5.2,9.3-7.9,9.8H285.2z"/>
		</g>
		<g>
			<path class="st0" d="M274.7,360.7h-13.6c-2.7,0-4.8-2.2-4.8-4.8v-0.5c0-2.7,2.2-4.8,4.8-4.8h13.6c2.7,0,4.8,2.2,4.8,4.8v0.5
				C279.5,358.5,277.4,360.7,274.7,360.7z M261.1,353.5c-1.1,0-1.9,0.9-1.9,1.9v0.5c0,1.1,0.9,1.9,1.9,1.9h13.6
				c1.1,0,1.9-0.9,1.9-1.9v-0.5c0-1.1-0.9-1.9-1.9-1.9H261.1z"/>
		</g>
		<g>
			<path class="st1" d="M274.6,376.5h-12.2c-1.2,2-2.6,3.4-4,5c-2.4,2.8-6.5,7.7-6.7,9.5c0,1.2,2,0.6,2.4,1.6h29.4
				c2.1-1,2.1-1.2,2.1-1.6c-0.3-1.7-4.4-6.6-6.8-9.4C277.3,379.9,275.9,378.5,274.6,376.5z"/>
		</g>
	</g>
	<g>
		<path class="st0" d="M230.2,339.1H184c-6.3,0-11.4-5.1-11.4-11.4h2.9c0,4.7,3.8,8.5,8.5,8.5h46.3c4.7,0,8.5-3.8,8.5-8.5h2.9
			C241.6,334,236.5,339.1,230.2,339.1z"/>
	</g>
	<g>
		<rect x="206" y="337.5" class="st0" width="3" height="67"/>
	</g>
	<g>
		<path class="st0" d="M226.2,404.2h-2.9c0-3.3-2.7-5.9-5.9-5.9h-19.1c-3.3,0-5.9,2.7-5.9,5.9h-2.9c0-4.9,4-8.8,8.8-8.8h19.1
			C222.2,395.4,226.2,399.3,226.2,404.2z"/>
	</g>
	<g>
		<path class="st0" d="M270,340.5h-3v-18.8c0-1.6-0.4-2.9-1.4-3.8c-2-1.9-6-1.8-6-1.8H252v-3.6h7.8c0.1,0,4.9,0.1,7.8,2.9
			c1.6,1.5,2.4,3.8,2.4,6.2L270,340.5L270,340.5z"/>
	</g>
	<g>
		<rect x="264" y="339.5" class="st0" width="9" height="2"/>
	</g>
	<g>
		<g>
			<path class="st1" d="M165.2,314.8c0,5.2,4.2,9.4,9.4,9.4s9.4-4.3,9.4-9.4c0-0.1,0-0.3,0-0.3h-18.7
				C165.2,314.5,165.2,314.7,165.2,314.8z"/>
		</g>
		<g>
			<path class="st1" d="M198.6,314.8c0,5.2,4.2,9.4,9.4,9.4s9.4-4.3,9.4-9.4c0-0.1,0-0.3,0-0.3h-18.7
				C198.6,314.5,198.6,314.7,198.6,314.8z"/>
		</g>
		<g>
			<path class="st1" d="M230.5,314.8c0,5.2,4.2,9.4,9.4,9.4s9.4-4.3,9.4-9.4c0-0.1,0-0.3,0-0.3h-18.7
				C230.5,314.5,230.5,314.7,230.5,314.8z"/>
		</g>
	</g>
</g>
<g>
	<circle class="st3" cx="29.1" cy="30.9" r="27.5"/>
	<g>
		<g>
			<g>
				<circle class="st4" cx="29.1" cy="30.9" r="18.6"/>
			</g>
			<g>
				<path class="st2" d="M33.7,22.1v10.4h1.8v3h-1.8v3.9h-3.6v-3.9h-7.5v-2.7c0.4-0.7,0.8-1.6,1.4-2.5c0.5-0.9,1.2-1.9,1.8-2.8
					c0.7-1,1.4-1.9,2.1-2.9c0.7-0.9,1.5-1.8,2.2-2.5H33.7z M30.1,26.6c-0.6,0.8-1.3,1.8-2.1,2.8s-1.3,2-1.8,3.1h3.9V26.6z"/>
			</g>
		</g>
	</g>
</g>
<g>
	<path class="st0" d="M194.2,51.8H153h-2.3h-16V22.1h-22.9v4.6H91.3v25.2H52.4v98.3h9.1v13.7H185v-13.7h9.1V51.8z M189.6,56.4v13.7
		h-34.3V56.4H189.6z M100.4,90.7h-4.6v-4.6h4.6V90.7z M95.8,95.3h4.6v4.6h13.7v-9.1h18.3v9.1h13.7v-4.6h4.6v9.1H95.8V95.3z
		 M105,95.3V81.6h4.6v13.7H105z M137,95.3V81.6h4.6v13.7H137z M150.7,90.7h-4.6v-4.6h4.6V90.7z M150.7,56.4v25.2h-4.6V77h-13.7v9.1
		h-18.3V77h-13.7v4.6h-4.6V70.1h20.6h2.3h2.3v11.4h4.6V70.1h4.6V61h4.6v-4.6H150.7z M111.9,51.8H105V40.4h6.9V51.8z M116.4,56.4
		V35.8h13.7v20.6H116.4z M125.6,61v4.6H121V61H125.6z M130.1,26.7v4.6h-13.7v-4.6H130.1z M95.8,31.2h16v4.6h-11.4v20.6h11.4V61h4.6
		v4.6H95.8v-9.1v-4.6V31.2z M91.3,56.4v13.7H57V56.4H91.3z M180.5,159.3H66.1v-9.1h114.4V159.3z M57,145.6V74.7h34.3V109h64V74.7
		h34.3v70.9H57z"/>
	<path class="st0" d="M155.3,131.9H185v-18.3h-29.7V131.9z M159.9,118.2h20.6v9.1h-20.6V118.2z"/>
	<rect x="155.3" y="136.5" class="st0" width="20.6" height="4.6"/>
	<rect x="180.5" y="136.5" class="st0" width="4.6" height="4.6"/>
</g>
<rect x="120.1" y="39.4" class="st1" width="6.4" height="12.5"/>
<rect x="138.2" y="83.1" class="st1" width="2.3" height="11.5"/>
<rect x="106" y="83.1" class="st1" width="2.3" height="11.5"/>
<polygon class="st1" points="86.9,113 86.9,80.3 60.6,80.3 60.6,113 60.6,138.7 60.6,141 150.4,141 150.4,113 "/>
</svg>
