<?xml version="1.0" encoding="utf-8"?>
<!-- Generator: Adobe Illustrator 21.1.0, SVG Export Plug-In . SVG Version: 6.00 Build 0)  -->
<svg version="1.1" id="Capa_1" xmlns="http://www.w3.org/2000/svg" xmlns:xlink="http://www.w3.org/1999/xlink" x="0px" y="0px"
	 viewBox="0 0 181 153" style="enable-background:new 0 0 181 153;" xml:space="preserve">
<style type="text/css">
	.st0{fill:#EDF5FC;}
	.st1{fill:#005CB9;}
	.st2{fill:#E1EEFA;}
	.st3{fill:none;stroke:#2481D7;stroke-width:3;stroke-miterlimit:10;}
	.st4{fill:#E1EEFA;stroke:#2481D7;stroke-width:3;stroke-miterlimit:10;}
	.st5{fill:none;stroke:#E1EEFA;stroke-width:6;stroke-miterlimit:10;}
	.st6{fill:#FFFFFF;}
</style>
<g>
	<circle class="st0" cx="37" cy="36" r="27.5"/>
	<g>
		<g>
			<g>
				<circle class="st1" cx="37" cy="36" r="18.6"/>
			</g>
		</g>
	</g>
</g>
<g>
	<path class="st2" d="M165.9,44H61.8c-4.7,0-7.8,4.2-7.8,8.9V124h121V52.9C175,48.2,170.5,44,165.9,44z M166,114H62V52h104V114z"/>
	<path class="st3" d="M165.9,133.4H61.8c-4.7,0-8.5-3.8-8.5-8.5v-72c0-4.7,3.8-8.5,8.5-8.5h104.1c4.7,0,8.5,3.8,8.5,8.5V125
		C174.3,129.6,170.5,133.4,165.9,133.4z"/>
	<line class="st3" x1="54" y1="123.5" x2="175" y2="123.5"/>
	<rect x="61.8" y="52.1" class="st3" width="104" height="62.5"/>
	<line class="st3" x1="84" y1="144.5" x2="144" y2="144.5"/>
	<rect x="103" y="133.4" class="st4" width="21.3" height="11.5"/>
	<rect x="116.9" y="71.2" class="st2" width="24" height="2.4"/>
	<rect x="116.9" y="78.2" class="st2" width="37.5" height="2.4"/>
	<rect x="116.9" y="83.8" class="st2" width="37.5" height="2.4"/>
	<rect x="116.9" y="89.5" class="st2" width="37.5" height="2.4"/>
	<rect x="116.9" y="95.2" class="st2" width="37.5" height="2.4"/>
	<polyline class="st5" points="79,85.8 84.6,91.5 101,75 	"/>
</g>
<g>
	<path class="st6" d="M37,33.7c1,0,1.9,0.1,2.6,0.4c0.7,0.3,1.3,0.7,1.8,1.1c0.5,0.5,0.8,1,1,1.7c0.2,0.6,0.3,1.3,0.3,2
		c0,0.6-0.1,1.3-0.3,1.9c-0.2,0.7-0.6,1.3-1,1.8c-0.5,0.5-1.1,1-1.8,1.3c-0.7,0.3-1.6,0.5-2.5,0.5c-2,0-3.5-0.6-4.5-1.9
		c-1-1.2-1.5-3-1.5-5.2c0-1.6,0.2-3,0.7-4.2c0.5-1.2,1.2-2.2,2.1-3.1c0.9-0.8,2-1.5,3.3-1.9c1.3-0.4,2.7-0.7,4.3-0.7
		c0,0.5,0.1,1,0.1,1.4c0,0.5,0.1,1,0.1,1.5c-0.8,0-1.6,0.1-2.3,0.2c-0.7,0.1-1.3,0.3-1.9,0.6c-0.6,0.3-1.1,0.7-1.5,1.1
		c-0.4,0.4-0.8,1-1,1.6c0.3-0.2,0.7-0.3,1.1-0.3C36.4,33.7,36.7,33.7,37,33.7z M36.6,36.4c-0.3,0-0.7,0-1.1,0.1
		c-0.4,0.1-0.7,0.2-0.9,0.3c0,0.1,0,0.2,0,0.3c0,0.1,0,0.2,0,0.3c0,0.6,0,1.1,0.1,1.6c0.1,0.5,0.2,0.9,0.4,1.3
		c0.2,0.4,0.4,0.7,0.8,0.9c0.3,0.2,0.7,0.3,1.2,0.3c0.4,0,0.7-0.1,1-0.2c0.3-0.2,0.5-0.4,0.7-0.6c0.2-0.3,0.3-0.5,0.4-0.8
		c0.1-0.3,0.1-0.6,0.1-0.9c0-0.8-0.2-1.4-0.6-1.9C38.2,36.6,37.5,36.4,36.6,36.4z"/>
</g>
</svg>
