<?xml version="1.0" encoding="utf-8"?>
<!-- Generator: Adobe Illustrator 19.1.0, SVG Export Plug-In . SVG Version: 6.00 Build 0)  -->
<svg version="1.1" id="Capa_1" xmlns="http://www.w3.org/2000/svg" xmlns:xlink="http://www.w3.org/1999/xlink" x="0px" y="0px"
	 viewBox="0 0 26 25.7" style="enable-background:new 0 0 26 25.7;" xml:space="preserve">
<style type="text/css">
	.st0{fill:#FFFFFF;}
	.st1{fill:#90C0EB;}
	.st2{fill:#E1EEFA;}
</style>
<g>
	<g>
		<g>
			<path class="st0" d="M19.1,8.3l-3.9-2.3c-0.8-0.5-1.1-1.6-0.6-2.4l0.1-0.1c0.5-0.8,1.6-1.1,2.4-0.6L21,5.1
				c0.8,0.5,1.1,1.6,0.6,2.4l-0.1,0.1C21.1,8.6,20,8.8,19.1,8.3z M16.6,3.8c-0.3-0.2-0.8-0.1-1,0.2l-0.1,0.1c-0.2,0.3-0.1,0.8,0.2,1
				l3.9,2.3c0.3,0.2,0.8,0.1,1-0.2L20.7,7c0.2-0.3,0.1-0.8-0.2-1L16.6,3.8z"/>
		</g>
		<g>
			<polygon class="st0" points="10.7,12.1 15.2,5.6 14,5.1 10.7,10.1 			"/>
			<path class="st0" d="M18.6,7.7L10.7,20v1.8c0-0.2,1-0.4,1.1-0.7l7.6-12.9L18.6,7.7z"/>
		</g>
	</g>
	<g>
		<g>
			<path class="st0" d="M9.4,23.4c-1.7,0-3-1.4-3-3.1v-15h1v15c0,1.1,0.9,2,2,2s2-0.9,2-2v-15h1v15C12.5,22.1,11.1,23.4,9.4,23.4z"
				/>
		</g>
		<path class="st1" d="M10.4,12c0,0,0,0.1,0,0.1c0,0.2-0.2,0.5-0.4,0.5c-0.2,0-0.4-0.3-0.4-0.5c0,0,0-0.1,0-0.1H6.7v8.2
			c0,0.7,1.3,1.3,2,1.3c0.7,0,2-0.6,2-1.3V12H10.4z"/>
		<g>
			<path class="st0" d="M11.7,6H7.2c-1,0-1.8-0.8-1.8-1.8V4c0-1,0.8-1.8,1.8-1.8h4.5c1,0,1.8,0.8,1.8,1.8v0.2
				C13.5,5.2,12.7,6,11.7,6z M7.2,3.3C6.8,3.3,6.5,3.6,6.5,4v0.2c0,0.4,0.3,0.7,0.7,0.7h4.5c0.4,0,0.7-0.3,0.7-0.7V4
				c0-0.4-0.3-0.7-0.7-0.7H7.2z"/>
		</g>
	</g>
	<polygon class="st2" points="13.2,17.9 12.4,19.3 12.4,11.1 13.2,9.9 	"/>
</g>
</svg>
