<?xml version="1.0" encoding="utf-8"?>
<!-- Generator: Adobe Illustrator 19.1.0, SVG Export Plug-In . SVG Version: 6.00 Build 0)  -->
<svg version="1.1" id="Capa_1" xmlns="http://www.w3.org/2000/svg" xmlns:xlink="http://www.w3.org/1999/xlink" x="0px" y="0px"
	 viewBox="0 0 26 25.7" style="enable-background:new 0 0 26 25.7;" xml:space="preserve">
<style type="text/css">
	.st0{fill:#FFFFFF;}
	.st1{fill:#E1EEFA;}
</style>
<g>
	<g>
		<path class="st0" d="M14.8,8.4H5.4V5.3c0-1.2,1-2.3,2.3-2.3H8c0.3-0.6,1-1.3,1.9-1.3c0.9,0,1.6,0.7,1.9,1.3h0.7
			c1.2,0,2.3,1,2.3,2.3V8.4z M6.7,7.1h6.8V5.3c0-0.5-0.4-0.9-0.9-0.9h-1.7l-0.1-0.5c0-0.2-0.5-0.8-0.8-0.8c-0.4,0-0.8,0.6-0.8,0.8
			L9,4.4H7.7c-0.5,0-0.9,0.4-0.9,0.9V7.1z"/>
	</g>
	<rect x="5.4" y="10.3" class="st1" width="6.1" height="1"/>
	<rect x="5.4" y="12.5" class="st1" width="9.6" height="1"/>
	<rect x="5.4" y="14.8" class="st1" width="9.6" height="1"/>
	<rect x="5.4" y="17" class="st1" width="9.6" height="1"/>
	<rect x="5.4" y="19.3" class="st1" width="9.6" height="1"/>
	<circle class="st0" cx="10" cy="5.8" r="0.7"/>
	<g>
		<g>
			<g>
				<path class="st0" d="M18.9,17.2l-4.3-2.8l5.1-7.7c0.4-0.6,1-1,1.6-1.1c0.7-0.1,1.4,0,1.9,0.4c0.6,0.4,1,1,1.1,1.6
					c0.1,0.7,0,1.4-0.4,1.9L18.9,17.2z M15.8,14.1l2.8,1.8l4.6-7c0.2-0.4,0.3-0.8,0.2-1.3c-0.1-0.4-0.3-0.8-0.7-1.1
					c-0.4-0.2-0.8-0.3-1.3-0.2c-0.4,0.1-0.8,0.3-1.1,0.7L15.8,14.1z"/>
			</g>
			<g>
				<polygon class="st0" points="13.6,20.4 14.5,14.4 15.8,12.5 16.5,13 15.3,14.8 14.8,18.7 18.2,16.6 19.3,14.8 20.1,15.3 
					18.8,17.3 				"/>
			</g>
		</g>
		<g>
			<rect x="19" y="8.8" transform="matrix(0.8354 0.5496 -0.5496 0.8354 8.5349 -10.0344)" class="st0" width="4.1" height="0.9"/>
		</g>
	</g>
	<g>
		<path class="st0" d="M16.4,4h-2.5c0.2,1,0.8,1,0.8,1.3V6h1.7c0.5,0,1.3,0.3,1.3,0.8v4.1l1-2.1V6.8C18.7,5.5,17.7,4,16.4,4z"/>
		<path class="st0" d="M17.7,22.2c0,0.5-0.8,0.8-1.3,0.8H3.8c-0.5,0-1.1-0.3-1.1-0.8V6.8C2.7,6.2,3.3,6,3.8,6h1.9V5.3
			C5.7,5,6.2,5,6.3,4H3.8C2.6,4,1.7,5.5,1.7,6.8v15.4c0,1.3,0.8,1.8,2.1,1.8h12.6c1.3,0,2.3-0.5,2.3-1.8v-5.6l-1-0.9V22.2z"/>
	</g>
</g>
</svg>
