<?xml version="1.0" encoding="utf-8"?>
<!-- Generator: Adobe Illustrator 21.1.0, SVG Export Plug-In . SVG Version: 6.00 Build 0)  -->
<svg version="1.1" id="Capa_1" xmlns="http://www.w3.org/2000/svg" xmlns:xlink="http://www.w3.org/1999/xlink" x="0px" y="0px"
	 viewBox="0 0 26 25.7" style="enable-background:new 0 0 26 25.7;" xml:space="preserve">
<style type="text/css">
	.st0{fill:#FFFFFF;}
	.st1{fill:#90C0EB;}
</style>
<g>
	<g>
		<g>
			<path class="st0" d="M19.2,8.4l-3.9-2.3c-0.8-0.5-1.1-1.6-0.6-2.4l0.1-0.1c0.5-0.8,1.6-1.1,2.4-0.6l3.9,2.2
				c0.8,0.5,1.1,1.6,0.6,2.4l-0.1,0.1C21.2,8.7,20.1,8.9,19.2,8.4z M16.7,3.9c-0.3-0.2-0.8-0.1-1,0.2l-0.1,0.1
				c-0.2,0.3-0.1,0.8,0.2,1l3.9,2.3c0.3,0.2,0.8,0.1,1-0.2l0.1-0.2c0.2-0.3,0.1-0.8-0.2-1L16.7,3.9z"/>
		</g>
		<g>
			<polygon class="st0" points="11.6,12.2 16.1,5.7 14.9,5.2 11.6,10.2 			"/>
			<path class="st0" d="M19.5,7.8l-7.9,12.3v1.8c0-0.2,1-0.4,1.1-0.7l7.6-12.9L19.5,7.8z"/>
		</g>
	</g>
	<g>
		<g>
			<path class="st0" d="M9.4,23.5c-1.7,0-3-1.4-3-3.1v-15h1v15c0,1.1,0.9,2,2,2s2-0.9,2-2v-15h1v15C12.5,22.2,11.1,23.5,9.4,23.5z"
				/>
		</g>
		<path class="st1" d="M10.8,13.5L10.8,13.5c0,0.3-0.2,0.5-0.3,0.5c-0.2,0-0.3-0.3-0.3-0.4v-0.1H7.7v6.9c0,0.6,1.1,1.1,1.7,1.1
			s1.7-0.5,1.7-1.1v-6.9H10.8z"/>
		<g>
			<path class="st0" d="M11.7,6.1H7.2c-1,0-1.8-0.8-1.8-1.8V4.1c0-1,0.8-1.8,1.8-1.8h4.5c1,0,1.8,0.8,1.8,1.8v0.2
				C13.5,5.3,12.7,6.1,11.7,6.1z M7.2,3.4c-0.4,0-0.7,0.3-0.7,0.7v0.2C6.5,4.7,6.8,5,7.2,5h4.5c0.4,0,0.7-0.3,0.7-0.7V4.1
				c0-0.4-0.3-0.7-0.7-0.7H7.2z"/>
		</g>
	</g>
</g>
</svg>
