<?xml version="1.0" encoding="utf-8"?>
<!-- Generator: Adobe Illustrator 21.1.0, SVG Export Plug-In . SVG Version: 6.00 Build 0)  -->
<svg version="1.1" id="Capa_1" xmlns="http://www.w3.org/2000/svg" xmlns:xlink="http://www.w3.org/1999/xlink" x="0px" y="0px"
	 viewBox="0 0 26 25.7" style="enable-background:new 0 0 26 25.7;" xml:space="preserve">
<style type="text/css">
	.st0{fill:#FFFFFF;}
</style>
<g>
	<path class="st0" d="M22,6.9c0-0.2,0-0.3-0.1-0.4l-4.2-4.1c-0.1-0.1-0.3-0.2-0.4-0.1c0,0,0,0-0.1,0H5.7c-0.3,0-0.5,0.2-0.5,0.5v3.5
		h-2c-0.3,0-0.5,0.2-0.5,0.5V12c0,0.3,0.2,0.5,0.5,0.5h2v11.2c0,0.3,0.2,0.5,0.5,0.5h15.8c0.3,0,0.5-0.2,0.5-0.5L22,6.9
		C22,6.9,22,6.9,22,6.9z M17.8,3.9l2.4,2.3h-2.4V3.9z M3.7,7.3h9.4v4.1H3.7V7.3z M6.2,23.1V12.5h7.4c0.3,0,0.5-0.2,0.5-0.5V6.8
		c0-0.3-0.2-0.5-0.5-0.5H6.2v-3h10.5v3.5c0,0.3,0.2,0.5,0.5,0.5H21v15.9H6.2z"/>
	<path class="st0" d="M6.7,8.9c0-0.4-0.1-0.6-0.4-0.8c-0.2-0.2-0.6-0.2-1-0.2c-0.1,0-0.3,0-0.4,0c-0.2,0-0.3,0-0.5,0.1v2.9h0.7v-1
		h0.2c0.4,0,0.8-0.1,1-0.2C6.6,9.5,6.7,9.2,6.7,8.9z M5.9,9.2C5.7,9.3,5.6,9.3,5.3,9.3H5.1V8.4c0,0,0.1,0,0.1,0c0,0,0.1,0,0.1,0
		c0.1,0,0.2,0,0.3,0c0.1,0,0.1,0,0.2,0.1C5.9,8.6,6,8.6,6,8.7c0,0.1,0,0.1,0,0.2C6,9,6,9.1,5.9,9.2z"/>
	<path class="st0" d="M8.1,10.9c0.3,0,0.5,0,0.7-0.1c0.2-0.1,0.4-0.2,0.5-0.3c0.1-0.1,0.3-0.3,0.3-0.5c0.1-0.2,0.1-0.4,0.1-0.7
		c0-0.3,0-0.5-0.1-0.7C9.6,8.5,9.5,8.3,9.4,8.2C9.2,8.1,9,8,8.8,8S8.4,7.9,8.1,7.9c-0.1,0-0.3,0-0.4,0c-0.2,0-0.3,0-0.5,0.1v2.9
		c0.2,0,0.3,0.1,0.5,0.1C7.9,10.9,8,10.9,8.1,10.9z M7.9,8.4c0,0,0.1,0,0.1,0c0,0,0.1,0,0.1,0c0.3,0,0.6,0.1,0.7,0.2
		c0.2,0.2,0.2,0.4,0.2,0.7c0,0.3-0.1,0.5-0.2,0.7c-0.2,0.2-0.4,0.3-0.7,0.3c-0.1,0-0.1,0-0.1,0c0,0-0.1,0-0.1,0V8.4z"/>
	<polygon class="st0" points="11,9.6 12.2,9.6 12.2,9.1 11,9.1 11,8.5 12.4,8.5 12.4,7.9 10.4,7.9 10.4,10.9 11,10.9 	"/>
</g>
</svg>
